<svg width="21" height="17" viewBox="0 0 36 23" fill="none" xmlns="http://www.w3.org/2000/svg">
<path d="M18 14.5521L33.2928 1.1173C32.256 0.408767 30.96 0 29.5776 0H6.42238C5.03998 0 3.74398 0.408767 2.70718 1.1173L18 14.5521Z" fill="#A5A6F6"/>
<path d="M24.5952 11.5L34.7904 20.4656C35.5392 19.4573 36 18.231 36 16.8957V6.04976C36 4.71446 35.5392 3.48815 34.7904 2.47986L24.5952 11.5Z" fill="#A5A6F6"/>
<path d="M11.4048 11.5L1.2096 2.53436C0.460799 3.54265 0 4.76895 0 6.10426V16.9502C0 18.2855 0.460799 19.5118 1.2096 20.5201L11.4048 11.5Z" fill="#A5A6F6"/>
<path d="M23.04 12.8626L18 17.3045L12.96 12.8626L2.70718 21.8827C3.74398 22.5912 5.03998 23 6.42238 23H29.5488C30.9312 23 32.2272 22.5912 33.264 21.8827L23.04 12.8626Z" fill="#A5A6F6"/>
</svg>
