<svg width="22" height="22" viewBox="0 0 37 37" fill="none" xmlns="http://www.w3.org/2000/svg">
<path d="M26.2083 13.875V10.7917C26.2083 6.47499 22.8167 3.08332 18.5 3.08332C14.1833 3.08332 10.7917 6.47499 10.7917 10.7917V13.875C8.17082 13.875 6.16666 15.8792 6.16666 18.5V29.2917C6.16666 31.9125 8.17082 33.9167 10.7917 33.9167H26.2083C28.8292 33.9167 30.8333 31.9125 30.8333 29.2917V18.5C30.8333 15.8792 28.8292 13.875 26.2083 13.875ZM13.875 10.7917C13.875 8.17082 15.8792 6.16665 18.5 6.16665C21.1208 6.16665 23.125 8.17082 23.125 10.7917V13.875H13.875V10.7917ZM20.0417 26.2083C20.0417 27.1333 19.425 27.75 18.5 27.75C17.575 27.75 16.9583 27.1333 16.9583 26.2083V21.5833C16.9583 20.6583 17.575 20.0417 18.5 20.0417C19.425 20.0417 20.0417 20.6583 20.0417 21.5833V26.2083Z" fill="#A5A6F6"/>
</svg>
