<svg width="20" height="20" viewBox="0 0 29 31" fill="none" xmlns="http://www.w3.org/2000/svg">
<path d="M14.0989 15.5236C18.3163 15.5236 21.63 12.1319 21.63 7.81524C21.63 3.49858 18.3163 0.10691 14.0989 0.10691C9.8815 0.10691 6.56783 3.49858 6.56783 7.81524C6.56783 12.1319 9.8815 15.5236 14.0989 15.5236ZM28.1067 29.0902C24.4469 14.3946 3.69431 14.748 0.0911039 29.0902C-0.0595176 29.8611 0.392347 30.7861 1.29608 30.9402C1.4467 30.9402 1.59732 30.9402 1.59732 30.9402H26.6005C27.5042 30.9402 28.1067 30.3236 28.1067 29.3986C28.1067 29.2444 28.1067 29.0902 28.1067 29.0902Z" fill="#A5A6F6"/>
</svg>
